<svg xmlns="http://www.w3.org/2000/svg" viewBox="0 0 64 64" width="64px" height="64px"><path fill="#ced8ed" d="M49,20H15A17,17,0,0,1,42,6.26,16.54,16.54,0,0,1,44,8,16.93,16.93,0,0,1,49,20Z"/><path fill="#faefde" d="M15 21H49V49H15zM11 21h4a0 0 0 0 1 0 0V57a0 0 0 0 1 0 0H7a0 0 0 0 1 0 0V25A4 4 0 0 1 11 21z"/><path fill="#85cbf8" d="M15 21H49a0 0 0 0 1 0 0v6a4 4 0 0 1-4 4H19a4 4 0 0 1-4-4V21A0 0 0 0 1 15 21zM32 11A3 3 0 1 0 32 17 3 3 0 1 0 32 11z"/><path fill="#faefde" d="M49,21h4a4,4,0,0,1,4,4V57a0,0,0,0,1,0,0H49a0,0,0,0,1,0,0V21A0,0,0,0,1,49,21Z"/><path fill="#fff7f0" d="M49,21h4a4,4,0,0,1,4,4v6a0,0,0,0,1,0,0H49a0,0,0,0,1,0,0V21A0,0,0,0,1,49,21Z"/><path fill="#fff7f0" d="M7,21h8a0,0,0,0,1,0,0v6a4,4,0,0,1-4,4H7a0,0,0,0,1,0,0V21A0,0,0,0,1,7,21Z" transform="rotate(180 11 26)"/><path fill="#85cbf8" d="M42,6.26V7H22V6.26a17,17,0,0,1,20,0Z"/><path fill="#ced8ed" d="M46,49H18l1.72,3.45a1,1,0,0,0,.89.55H43.38a1,1,0,0,0,.89-.55Z"/><rect width="10" height="10" x="27" y="35" fill="#85cbf8" rx="1" ry="1"/><path fill="#ced8ed" d="M60.59 63H50a1 1 0 0 1-1-1V57h8l4.29 4.29A1 1 0 0 1 60.59 63zM38.86 63H25.14a1 1 0 0 1-.77-1.64l3-3.64A2 2 0 0 1 28.94 57h6.13a2 2 0 0 1 1.54.72l3 3.64A1 1 0 0 1 38.86 63zM3.41 63H14a1 1 0 0 0 1-1V57H7L2.71 61.29A1 1 0 0 0 3.41 63z"/><path fill="#faefde" d="M29 53H35V57H29z"/><path fill="#8d6c9f" d="M29 28a1 1 0 0 0 1-1V25a1 1 0 0 0-2 0v2A1 1 0 0 0 29 28zM35 28a1 1 0 0 0 1-1V25a1 1 0 0 0-2 0v2A1 1 0 0 0 35 28zM40 28a1 1 0 0 0 1-1V25a1 1 0 0 0-2 0v2A1 1 0 0 0 40 28zM45 24a1 1 0 0 0-1 1v2a1 1 0 0 0 2 0V25A1 1 0 0 0 45 24zM19 24a1 1 0 0 0-1 1v2a1 1 0 0 0 2 0V25A1 1 0 0 0 19 24zM24 28a1 1 0 0 0 1-1V25a1 1 0 0 0-2 0v2A1 1 0 0 0 24 28zM37 6H33a1 1 0 0 0 0 2h4a1 1 0 0 0 0-2zM41 30H23a1 1 0 0 0 0 2H41a1 1 0 0 0 0-2zM32 10a4 4 0 1 0 4 4A4 4 0 0 0 32 10zm0 6a2 2 0 1 1 2-2A2 2 0 0 1 32 16zM40 12A2 2 0 1 0 40 16 2 2 0 1 0 40 12zM36 34H28a2 2 0 0 0-2 2v8a2 2 0 0 0 2 2h8a2 2 0 0 0 2-2V36A2 2 0 0 0 36 34zM28 44V36h8v8z"/><path fill="#8d6c9f" d="M62,60.59l-4-4V25a5,5,0,0,0-5-5H50A18,18,0,0,0,20.57,6.11a1,1,0,0,0-.38.35A18,18,0,0,0,14,20H11a5,5,0,0,0-5,5V56.59l-4,4A2,2,0,0,0,3.41,64H14a2,2,0,0,0,2-2V49.82A3,3,0,0,0,17,50h.38l1.45,2.89A2,2,0,0,0,20.62,54H28v2.17a3,3,0,0,0-1.37.91l-3,3.64A2,2,0,0,0,25.13,64H38.87a2,2,0,0,0,1.54-3.28l-3-3.64A3,3,0,0,0,36,56.17V54h7.38a2,2,0,0,0,1.79-1.11L46.62,50H47a3,3,0,0,0,1-.18V62a2,2,0,0,0,2,2H60.59A2,2,0,0,0,62,60.59ZM53,22a3,3,0,0,1,3,3v5H50V22ZM21.45,8H29a1,1,0,0,0,0-2H24.27A16,16,0,0,1,48,20H16A16,16,0,0,1,21.45,8ZM11,22h3v8H8V25A3,3,0,0,1,11,22Zm3,40H3.41l4-4H14ZM8,56V32h6V56Zm30.87,6H25.14l3-3.64a1,1,0,0,1,.77-.36h6.13a1,1,0,0,1,.77.36ZM34,56H30V54h4Zm9.38-4H20.62l-1-2H44.38ZM47,48H17a1,1,0,0,1-1-1V22H48V47A1,1,0,0,1,47,48Zm3-1V32h6V56H50ZM60.59,62H50V58h6.59l4,4Z"/></svg>